<svg xmlns="http://www.w3.org/2000/svg" xmlns:xlink="http://www.w3.org/1999/xlink" viewBox="0 0 137.6615 137.6615">
  <defs>
    <style>
      .cls-1, .cls-7 {
        fill: none;
      }

      .cls-2 {
        fill: #ffd21f;
      }

      .cls-3 {
        fill: #403408;
      }

      .cls-4 {
        clip-path: url(#clip-path);
      }

      .cls-5 {
        fill: #fff;
      }

      .cls-6 {
        fill: #ff5a58;
      }

      .cls-7 {
        stroke: #403408;
        stroke-linecap: round;
        stroke-miterlimit: 10;
        stroke-width: 4px;
      }
    </style>
    <clipPath id="clip-path">
      <path class="cls-1" d="M34.5765,79.0838a2.1077,2.1077,0,0,0-1.9551,2.8951c2.9384,7.1731,12.7538,25.2329,37.1,25.2329,24.3346,0,34.3716-18.185,37.4023-25.4214a2.108,2.108,0,0,0-1.9609-2.9107Z"/>
    </clipPath>
  </defs>
  <title>Asset 9</title>
  <g id="Layer_2" data-name="Layer 2">
    <g id="OBJECTS">
      <g>
        <path class="cls-2" d="M137.6615,68.8307A68.8308,68.8308,0,1,1,68.83,0,68.8324,68.8324,0,0,1,137.6615,68.8307Z"/>
        <g>
          <path class="cls-3" d="M37.3724,47.8307h.25a4.875,4.875,0,0,1,4.875,4.875V66.7581a1.9864,1.9864,0,0,1-1.9864,1.9864H34.4838a1.9864,1.9864,0,0,1-1.9864-1.9864V52.7057A4.875,4.875,0,0,1,37.3724,47.8307Z"/>
          <path class="cls-3" d="M100.0391,47.8307h.25a4.875,4.875,0,0,1,4.875,4.875V66.7581a1.9864,1.9864,0,0,1-1.9864,1.9864H97.1505a1.9864,1.9864,0,0,1-1.9864-1.9864V52.7057A4.875,4.875,0,0,1,100.0391,47.8307Z"/>
        </g>
        <g>
          <path class="cls-3" d="M34.5765,79.0838a2.1077,2.1077,0,0,0-1.9551,2.8951c2.9384,7.1731,12.7538,25.2329,37.1,25.2329,24.3346,0,34.3716-18.185,37.4023-25.4214a2.108,2.108,0,0,0-1.9609-2.9107Z"/>
          <g class="cls-4">
            <path class="cls-5" d="M37.7216,78.2678c-1.3589.0011-2.296.4074-1.7809.7787,2.6766,1.9294,11.6174,6.7871,33.7941,6.7871,22.1664,0,31.3092-4.8913,34.07-6.8378.5293-.3731-.4162-.7841-1.7862-.7829Z"/>
            <ellipse class="cls-6" cx="69.3365" cy="112.917" rx="26.5" ry="14.375"/>
          </g>
        </g>
        <g>
          <path class="cls-7" d="M29.8351,39.1459s4.7257-9.5636,13.1927-5.2556"/>
          <path class="cls-7" d="M94.7033,33.929c8.4314-4.3774,13.1231,5.1115,13.1231,5.1115"/>
        </g>
      </g>
    </g>
  </g>
</svg>
